<?xml version="1.0" standalone="no"?>
<!DOCTYPE svg PUBLIC "-//W3C//DTD SVG 20010904//EN"
 "http://www.w3.org/TR/2001/REC-SVG-20010904/DTD/svg10.dtd">
<svg version="1.0" xmlns="http://www.w3.org/2000/svg"
 width="512.000000pt" height="512.000000pt" viewBox="0 0 512.000000 512.000000"
 preserveAspectRatio="xMidYMid meet">
<metadata>
Created by potrace 1.11, written by Peter Selinger 2001-2013
</metadata>
<g transform="translate(0.000000,512.000000) scale(0.100000,-0.100000)"
fill="#000000" stroke="none">
<path d="M2369 5116 c-2 -2 -42 -7 -89 -11 -46 -3 -87 -8 -90 -10 -3 -2 -29
-6 -59 -10 -29 -4 -108 -20 -175 -36 -400 -97 -791 -299 -1086 -560 -460 -407
-740 -908 -845 -1514 -21 -119 -23 -156 -20 -445 1 -242 6 -335 18 -400 54
-281 125 -496 238 -723 56 -113 143 -261 171 -291 10 -11 18 -23 18 -27 0 -9
148 -196 199 -253 246 -268 564 -498 874 -630 20 -9 52 -22 70 -30 93 -41 314
-108 432 -132 172 -35 200 -37 500 -40 273 -3 324 -1 429 16 152 26 369 80
441 110 11 4 58 23 105 41 92 35 323 147 367 177 16 11 68 45 117 77 223 145
450 360 620 585 31 41 60 80 64 85 27 34 129 209 176 301 83 165 165 387 201
539 4 17 9 39 12 50 13 55 43 238 50 300 10 92 10 430 1 525 -64 641 -364
1227 -854 1668 -71 65 -212 171 -314 237 -82 54 -308 175 -325 175 -6 0 -15 4
-20 9 -38 34 -407 150 -560 176 -16 3 -39 7 -50 9 -11 2 -45 7 -75 11 -30 4
-64 9 -75 12 -23 5 -461 14 -466 9z m437 -408 c5 -3 32 -8 61 -12 375 -44 802
-239 1108 -505 71 -62 214 -211 271 -282 101 -127 211 -304 266 -429 l25 -55
-889 0 c-488 0 -888 -1 -888 -3 0 -1 8 -14 17 -28 17 -26 15 -49 -11 -179 -2
-11 -7 -40 -11 -65 -4 -25 -9 -54 -11 -65 -35 -180 -65 -357 -62 -366 2 -7
218 -11 740 -10 l737 0 -4 -27 c-3 -15 -16 -94 -31 -177 -14 -82 -27 -157 -29
-165 -4 -13 -85 -15 -668 -15 l-662 0 -33 23 c-34 24 -52 22 -52 -6 0 -10 -3
-13 -8 -7 -9 12 -53 38 -57 33 -6 -6 -44 -232 -40 -236 2 -2 400 -4 885 -4
858 0 940 -3 940 -30 0 -4 5 -8 10 -8 6 0 10 9 10 19 0 18 2 19 27 6 14 -7 30
-20 34 -27 7 -10 9 -10 10 2 0 8 2 22 4 30 6 30 38 200 49 265 3 17 8 41 11
55 2 14 6 36 9 50 11 69 19 111 31 175 8 39 16 86 19 105 3 19 9 56 14 83 8
40 7 47 -7 48 -9 0 -343 1 -744 1 l-727 1 6 36 c3 20 17 91 30 158 13 68 24
124 24 127 0 8 1336 3 1359 -6 13 -5 30 -16 37 -26 11 -14 14 -14 14 -2 4 56
77 -290 89 -420 8 -89 6 -414 -3 -470 -2 -14 -7 -45 -11 -70 -88 -600 -437
-1143 -952 -1486 -267 -177 -630 -307 -958 -342 -93 -9 -392 -9 -479 1 -62 8
-104 15 -265 48 -95 19 -323 103 -446 164 -567 280 -989 803 -1140 1415 -9 36
-18 73 -21 83 -5 16 9 17 200 17 199 0 206 1 206 20 0 11 0 21 1 23 1 3 19 93
25 127 2 14 11 61 19 105 8 44 17 89 19 100 2 11 7 40 11 65 8 47 15 85 20
110 2 8 4 22 4 31 1 15 48 17 527 16 l525 0 -5 -21 c-2 -12 -25 -136 -50 -276
-26 -140 -49 -265 -51 -278 l-5 -22 222 2 c140 2 223 7 223 13 1 6 5 33 10 60
4 28 9 59 10 70 1 11 5 29 8 40 3 11 9 36 12 55 7 41 43 243 50 280 3 14 7 36
10 50 2 14 7 41 10 60 3 19 17 96 31 170 14 74 32 173 40 220 9 47 22 118 30
159 24 124 50 111 -227 111 l-240 0 17 -30 c17 -28 17 -35 -22 -247 l-39 -218
-522 -3 c-288 -1 -523 1 -523 5 0 9 80 443 87 471 l5 22 -247 0 -246 0 20 -29
c12 -16 19 -35 17 -43 -3 -7 -7 -26 -10 -43 -3 -16 -8 -43 -11 -60 -3 -16 -44
-241 -91 -500 -46 -258 -86 -474 -88 -480 -17 -50 -28 376 -13 525 6 68 14
110 48 280 19 92 103 319 164 445 102 209 226 383 390 550 229 233 446 377
780 515 59 24 169 58 245 76 219 49 334 62 566 59 110 -1 205 -4 210 -7z"/>
<path d="M1103 1663 c-62 -15 -113 -30 -113 -36 0 -5 30 -41 68 -79 346 -360
778 -575 1277 -636 117 -14 433 -7 545 12 487 82 883 293 1210 641 l55 59
-130 31 -130 31 -93 -88 c-158 -148 -294 -243 -467 -324 -629 -296 -1374 -200
-1901 247 -44 37 -102 91 -128 119 -26 27 -54 50 -64 49 -9 0 -68 -12 -129
-26z"/>
</g>
</svg>
